<?xml version="1.0" encoding="utf-8"?>
<!-- Generator: Adobe Illustrator 19.1.0, SVG Export Plug-In . SVG Version: 6.00 Build 0)  -->
<svg version="1.1" xmlns="http://www.w3.org/2000/svg" xmlns:xlink="http://www.w3.org/1999/xlink" x="0px" y="0px"
	 viewBox="-105 107 300 300" style="enable-background:new -105 107 300 300;" xml:space="preserve">
<style type="text/css">
	.st0{display:none;}
	.st1{display:inline;}
	.st2{font-family:'Seravek-Bold';}
	.st3{font-size:49.5px;}
</style>
<g id="PIP" class="st0">
	<g class="st1">
		<path d="M-82.8,323.9c0-57.8,0-114.5,0-172.4c39.2,0,78,0,118.3,0c0.3,4.8,0.5,9.8,0.9,16.6c-33.7,0-66.7,0-100.6,0
			c0,40.5,0,79.3,0,115.8c14.9-15.9,31.3-33.3,47.6-50.8c1.4,0.9,2.8,1.8,4.2,2.7c-11.3,0-22.5,0-35.3,0c-0.3-6.3-0.6-11.3-0.9-17.5
			c24.1,0,47.5,0,72.1,0c0,22.9,0,46.2,0,71.2c-4.5,0.2-9.6,0.5-16.4,0.9c0-12.4,0-24.1,0-37.7c-18.3,19.9-34.9,37.9-49.4,53.6
			c57.8,0,120.6,0,184.7,0c0-24.7,0-48.6,0-73.5c6.3,0,11.3,0,17.3,0c0,30,0,60.1,0,91.2C79.3,323.9-0.9,323.9-82.8,323.9z"/>
		<path d="M177.4,119.7c0,32.5,0,64.5,0,97.3c-42.3,0-83.9,0-126.6,0c0-32.2,0-64.2,0-97.3C92.7,119.7,134.6,119.7,177.4,119.7z
			 M159.1,199.3c0-21.4,0-41.3,0-61.3c-30.7,0-60.6,0-90,0c0,21.1,0,41,0,61.3C99.4,199.3,128.5,199.3,159.1,199.3z"/>
	</g>
	<text transform="matrix(1 0 0 1 20.568 384.0065)" class="st1 st2 st3">PIP</text>
</g>
<g id="CYCLE" class="st0">
	<g class="st1">
		<path d="M-64.8,233.3c10.2-17.6,20.1-34.8,30.1-52.2c10.1,17.5,20,34.6,30.1,52.1c-6,0-11.6,0-17.5,0c1.2,9.8,4.4,18.6,9.3,26.8
			c5,8.2,11.4,15.1,19.4,20.8c-4.6,6.6-9.1,13.1-13.8,19.8c-22.9-16.8-35.8-39.1-39.2-67.3C-52.4,233.3-58.4,233.3-64.8,233.3z"/>
		<path d="M-10.4,185.1c-6.6-4.7-13.1-9.2-19.8-13.8c16.8-22.9,39.2-35.8,67.3-39.2c0-6,0-12,0-18.4c17.5,10.1,34.7,20,52.2,30.1
			c-17.4,10.1-34.6,20-52,30.1c0-5.9,0-11.5,0-17.5C17.2,159.3,1.5,168.9-10.4,185.1z"/>
		<path d="M138.3,215.6c6.1,0,12,0,18.4,0c-10.1,17.5-20,34.7-30.1,52.1c-10.1-17.5-20-34.6-30.1-52.1c6,0,11.6,0,17.5,0
			c-3-20-12.6-35.7-28.8-47.6c4.6-6.5,9.1-13,13.8-19.8C122,165.1,134.9,187.4,138.3,215.6z"/>
		<path d="M122.1,277.7c-16.9,22.9-39.2,35.8-67.3,39.1c0,6,0,11.9,0,18.4c-17.5-10.1-34.7-20-52.2-30.1
			c17.5-10.1,34.6-20,52.1-30.1c0,6,0,11.6,0,17.5c20-3,35.7-12.6,47.6-28.7C108.9,268.4,115.4,272.9,122.1,277.7z"/>
	</g>
	<text transform="matrix(1 0 0 1 -23.432 381.0065)" class="st1 st2 st3">CYCLE</text>
</g>
<g id="OSD">
	<g>
		<path d="M181.5,289.3c-1.9,3.2-4.7,4.1-8.4,4.1c-83.4-0.1-166.8,0-250.2,0c-1,0-1.9-0.1-2.9,0c-3.6,0.3-6.3-0.9-8.1-4
			c0-51.1,0-102.1,0-153.2c1.7-3.3,4.4-4.2,8-4.2c84.5,0.1,169,0.1,253.6,0c3.6,0,6.3,1,8,4.2C181.5,187.2,181.5,238.3,181.5,289.3z
			 M46.8,148.8c-36.7,0-73.3,0-110,0c-5.5,0-7.5,1.9-7.5,7.4c0,37.7,0,75.4,0,113.2c0,5.2,2.1,7.3,7.4,7.3c73.3,0,146.7,0,220,0
			c5.6,0,7.6-2,7.6-7.6c0-37.7,0-75.4,0-113.2c0-5.1-2.1-7.1-7.2-7.1C120.3,148.8,83.5,148.8,46.8,148.8z"/>
		<path d="M-6.5,307.9c35.6,0,70.8,0,106.5,0c-0.9,1.5-1.6,2.8-2.5,4.1c-5.7,7.8-13.5,12.7-22.4,15.9c-21,7.4-41.8,7-62.2-2.3
			c-6.9-3.1-12.8-7.6-17.2-13.9C-5,310.6-5.6,309.4-6.5,307.9z"/>
	</g>
	<text transform="matrix(1 0 0 1 -1.432 381.0065)" class="st2 st3">OSD</text>
</g>
</svg>
