<?xml version="1.0" encoding="utf-8"?>
<!-- Generator: Adobe Illustrator 19.1.0, SVG Export Plug-In . SVG Version: 6.00 Build 0)  -->
<svg version="1.1" id="Layer_1" xmlns="http://www.w3.org/2000/svg" xmlns:xlink="http://www.w3.org/1999/xlink" x="0px" y="0px"
	 viewBox="-105 107 300 300" style="enable-background:new -105 107 300 300;" xml:space="preserve">
<style type="text/css">
	.st0{stroke:#000000;stroke-miterlimit:10;}
	.st1{fill:url(#SVGID_1_);stroke:#000000;stroke-miterlimit:10;}
</style>
<path class="st0" d="M183,407H-93c-6.6,0-12-5.4-12-12V119c0-6.6,5.4-12,12-12h276c6.6,0,12,5.4,12,12v276
	C195,401.6,189.6,407,183,407z"/>
<linearGradient id="SVGID_1_" gradientUnits="userSpaceOnUse" x1="-39.899" y1="109.9505" x2="129.899" y2="404.0495">
	<stop  offset="0" style="stop-color:#000D94"/>
	<stop  offset="0.5" style="stop-color:#0D007F"/>
	<stop  offset="0.51" style="stop-color:#00036A"/>
	<stop  offset="0.9962" style="stop-color:#01002A"/>
</linearGradient>
<path class="st1" d="M153.7,387H-63.7c-11.8,0-21.3-9.5-21.3-21.3V148.3c0-11.8,9.5-21.3,21.3-21.3h217.4c11.8,0,21.3,9.5,21.3,21.3
	v217.4C175,377.5,165.5,387,153.7,387z"/>
</svg>
