<?xml version="1.0" encoding="utf-8"?>
<!-- Generator: Adobe Illustrator 19.2.1, SVG Export Plug-In . SVG Version: 6.00 Build 0)  -->
<svg version="1.1" id="Layer_1" xmlns="http://www.w3.org/2000/svg" xmlns:xlink="http://www.w3.org/1999/xlink" x="0px" y="0px"
	 viewBox="0 0 128 128" style="enable-background:new 0 0 128 128;" xml:space="preserve">
<style type="text/css">
	.st0{fill:none;stroke:#3C2F90;stroke-width:4;stroke-miterlimit:10;}
	.st1{fill:none;stroke:#3C2F90;stroke-width:6;stroke-miterlimit:10;}
	.st2{fill:#3C2F90;}
</style>
<path class="st2" d="M85.6,62.3c0,0,5.8,4.8,9.2,8.3s4.8,16.2,2.7,20.8c-2.2,4.7-0.1,9,2.9,9.4c2.9,0.4,4.7-1.3,5.4-6.2
	c0.7-4.9,0.9-19.3-13.9-30.5"/>
<path class="st2" d="M52.1,67.2c0-0.1-4.5-6.7-8.6-14.5c-5.7-10.7-8.1-18.5-7.2-23.1c0.4-1.9,1.3-3.3,2.7-4.2
	c3.9-2.5,9.1,0.4,19.9,11.5l-2.6,2.6c-10.4-10.5-14-11.8-15.3-11c-0.3,0.2-0.8,0.7-1.1,1.8C38.4,38,50.4,58.1,55.2,65.2
	c0,0,0.4,1.6-0.4,2.3S52.1,67.2,52.1,67.2z"/>
<path class="st2" d="M76.4,54.2L92,57.4c0,0,4.5,7.1,4.3,8.6c-0.2,1.5-1.7,5.6-5,3.7c-3.4-1.9-9.1-6.3-9.9-8
	c-0.7-1.7-5.8-6.8-5.8-6.8"/>
</svg>
