<?xml version="1.0" encoding="utf-8"?>
<!-- Generator: Adobe Illustrator 19.1.0, SVG Export Plug-In . SVG Version: 6.00 Build 0)  -->
<svg version="1.1" xmlns="http://www.w3.org/2000/svg" xmlns:xlink="http://www.w3.org/1999/xlink" x="0px" y="0px"
	 viewBox="-105 107 300 300" style="enable-background:new -105 107 300 300;" xml:space="preserve">
<style type="text/css">
	.st0{stroke:#000000;stroke-miterlimit:10;}
</style>
<g id="Close">
	<path class="st0" d="M44.5,112C-35.9,112-101,177.1-101,257.5S-35.9,403,44.5,403S190,337.9,190,257.5S124.9,112,44.5,112z
		 M73.5,335.7l-14.7-26.4c-4.2-7.2-7.8-14.7-11.4-22.2h-0.9c-3.6,7.8-7.5,15-11.1,22.2l-13.8,26.4h-50.1L21.3,261l-48.6-72h51
		l14.4,24.3c4.2,7.5,8.1,15,12,21.9h0.6c3.9-7.8,7.5-15.3,11.4-22.5L75,189h49.5l-48.3,69.9l48.9,76.8H73.5z"/>
</g>
<g id="Back">
	<path d="M188.9,378.1C155,325.5,105.3,307,45.8,307c0,2.6,0,5.2,0,7.8c0,11.9,0,23.8,0,35.7c0,8.1-3.6,14.1-11,17.3
		c-7.5,3.2-14.3,1.5-20-4.2c-36.7-36.1-73.3-72.3-110-108.5c-0.7-0.7-1.3-1.4-2.1-2.3c1.1-1.1,2-2.2,2.9-3.1
		c36.1-35.6,72.1-71.1,108.1-106.8c6.1-6,12.8-8.3,20.9-5.2c7.3,2.9,11,9.3,11,18.5c0,14.4,0,28.8,0,43.5
		c54.4,7.9,96,34.9,123.3,82.9C185.8,311.8,190.8,343.6,188.9,378.1z"/>
</g>
</svg>
