<?xml version="1.0" encoding="utf-8"?>
<!-- Generator: Adobe Illustrator 19.1.0, SVG Export Plug-In . SVG Version: 6.00 Build 0)  -->
<svg version="1.1" xmlns="http://www.w3.org/2000/svg" xmlns:xlink="http://www.w3.org/1999/xlink" x="0px" y="0px"
	 viewBox="0 0 300 300" style="enable-background:new 0 0 300 300;" xml:space="preserve">
<style type="text/css">
	.st0{display:none;}
	.st1{display:inline;fill:#DD3A3A;}
	.st2{fill:#FFF200;}
</style>
<g id="Layer_3" class="st0">
	<path class="st1" d="M181,17.3V70c33.8,11.9,58,44.2,58,82c0,48-39,87-87,87s-87-39-87-87c0-37.5,23.7-69.5,57-81.7V17.1
		C60.3,30.4,14,85.3,14,151c0,75.7,61.3,137,137,137s137-61.3,137-137C288,85.6,242.2,31,181,17.3z"/>
	<rect x="136" y="2" class="st1" width="30.3" height="125"/>
</g>
<g id="Layer_2">
	<path class="st2" d="M141.6,4.1c-4.1,0-8.1,0.2-12.1,0.5C179.2,21.3,215,68.2,215,123.5c0,69.3-56.1,125.4-125.4,125.4
		c-29.3,0-56.3-10.1-77.7-26.9c25,45.9,73.6,77,129.6,77C223,299,289,233,289,151.6S223,4.1,141.6,4.1z"/>
</g>
<g id="Layer_5">
	<path d="M72,265H59c-6.6,0-12-5.4-12-12V61c0-6.6,5.4-12,12-12h13c6.6,0,12,5.4,12,12v192C84,259.6,78.6,265,72,265z"/>
	<path d="M159.5,265h-13c-6.6,0-12-5.4-12-12V91c0-6.6,5.4-12,12-12h13c6.6,0,12,5.4,12,12v162C171.5,259.6,166.1,265,159.5,265z"/>
	<path d="M201.5,265h-13c-6.6,0-12-5.4-12-12V147.9c0-6.6,5.4-12,12-12h13c6.6,0,12,5.4,12,12V253C213.5,259.6,208.1,265,201.5,265z
		"/>
	<path d="M243.5,265h-13c-6.6,0-12-5.4-12-12V125.4c0-6.6,5.4-12,12-12h13c6.6,0,12,5.4,12,12V253C255.5,259.6,250.1,265,243.5,265z
		"/>
	<path d="M116,265h-13c-6.6,0-12-5.4-12-12V112.8c0-6.6,5.4-12,12-12h13c6.6,0,12,5.4,12,12V253C128,259.6,122.6,265,116,265z"/>
</g>
</svg>
