<?xml version="1.0" encoding="utf-8"?>
<!-- Generator: Adobe Illustrator 19.1.0, SVG Export Plug-In . SVG Version: 6.00 Build 0)  -->
<svg version="1.1" xmlns="http://www.w3.org/2000/svg" xmlns:xlink="http://www.w3.org/1999/xlink" x="0px" y="0px"
	 viewBox="-105 107 300 300" style="enable-background:new -105 107 300 300;" xml:space="preserve">
<style type="text/css">
	.st0{display:none;}
	.st1{display:inline;}
	.st2{display:inline;fill:#4C4C4C;}
</style>
<g id="Active" class="st0">
	<circle class="st1" cx="46" cy="257" r="141"/>
</g>
<g id="Inactive" class="st0">
	<path class="st2" d="M46,116c-77.9,0-141,63.1-141,141s63.1,141,141,141s141-63.1,141-141S123.9,116,46,116z M46,369.8
		c-62.3,0-112.8-50.5-112.8-112.8S-16.3,144.2,46,144.2S158.8,194.7,158.8,257S108.3,369.8,46,369.8z"/>
</g>
<g id="Save" class="st0">
	<path class="st1" d="M23.9,165.8c17.9-8,22.7-1.1,22.2,14.8c-0.7,20.7-0.2,41.5-0.2,62.9c44.3-10.8,66.4-4.6,80,21.3
		c10.9,20.7,5.9,48-11.9,63.8c-18.1,16.1-44.4,17.7-64.7,3.9C26.4,317,21.8,293.7,35.1,255c-27.5,0-54.3,0-80.7,0
		c-3.9-20.5-3.9-20.5,44.3-25.2c-24.5-24.1-49.2-48.5-76.7-75.5c8.5-8.9,13-13.7,20.9-21.9c26.7,29.6,54.2,59.6,77.7,85.7
		L23.9,165.8z"/>
	<path class="st1" d="M63.8,197.9c27.5,0,55.5-2.9,82.4,1c18.7,2.7,27.6,20.4,27.5,40.4c-0.1,33,0.3,66-0.2,99
		c-0.4,27.3-15.6,44.1-43,45.1c-34.6,1.3-69.3,1.3-103.9-0.1c-26.1-1.1-40.8-17.9-41.4-43.9c-0.4-17.7-0.4-35.4,0.2-53.1
		c0.2-4.9,3-9.6,4.6-14.4c3.2,0.4,6.4,0.8,9.7,1.2c0,17.6,0,35.3,0,52.9c0.1,35.4,6.5,41.8,42.6,41.9c28.2,0.1,56.4-0.1,84.6-0.1
		c22,0,32.4-11.7,32.5-33c0.2-30.6,0.3-61.2-0.1-91.8c-0.3-21.3-11-32.7-33.1-32.4c-16.1,0.2-32.2,0.5-48.3-0.3
		c-5.3-0.3-10.5-4-15.7-6.1C62.7,202.1,63.3,200,63.8,197.9z"/>
</g>
<g id="Load">
	<path d="M74.9,156.6c5.2-4.2,10.2-11.7,15.6-12c24.5-1.3,49-0.6,77.1-0.6c0,28.8,0.4,56.2-0.4,83.6c-0.1,3.4-6.3,6.6-9.7,9.9
		c-3.1-3.6-8.6-7-8.9-10.8c-1.1-13.8-0.1-52.7-0.1-52.7c-22.1,23.5-51.9,53.4-72.7,78c-3.8,4.5-0.5,15.6,0.6,23.5
		c3.4,23.2-1.7,43-22.6,55.8C33.4,344,12.4,343-6.3,328.5c-18.2-14-23.3-33.6-17.4-55.5c6.9-25.9,35.1-43.1,61.3-34.8
		c14.2,4.5,21.9,0.3,30.8-9c19.6-20.5,39.8-40.4,63.1-63.9c-20.2-1-36.3-1.7-52.4-2.5C77.7,160.7,76.3,158.7,74.9,156.6z"/>
	<path d="M66.6,206.5c-8.2,2.2-16.3,5.9-24.5,6.2c-22.2,0.9-44.5,0.3-66.7,0.3c-21.7,0-31.9,11-31.8,32.5c0.1,30.2,0.3,60.4,0,90.6
		c-0.2,22,11.1,32,32.2,32.2c31,0.2,62,0.6,92.9-0.1c23.2-0.5,32-10.3,32.5-34.5c0.4-23-0.4-46.1,0.4-69.1
		c0.3-8.1,3.9-16.1,6.1-24.1c2.4,0.4,4.8,0.9,7.3,1.3c0,36,1.8,72.1-0.7,108c-1.5,21.6-18.9,33.2-39.9,33.9
		c-34.9,1.2-69.9,1.5-104.8-0.1c-25.1-1.1-39.4-17.1-39.9-41.7c-0.6-34.1-0.6-68.3,0.1-102.5c0.5-24.2,14.2-39.5,37.8-40.3
		c32.5-1.2,65-0.3,97.5-0.3C65.4,201.3,66,203.9,66.6,206.5z"/>
</g>
</svg>
