<?xml version="1.0" encoding="utf-8"?>
<!-- Generator: Adobe Illustrator 19.1.0, SVG Export Plug-In . SVG Version: 6.00 Build 0)  -->
<svg version="1.1" id="Layer_1" xmlns="http://www.w3.org/2000/svg" xmlns:xlink="http://www.w3.org/1999/xlink" x="0px" y="0px"
	 viewBox="-105 107 300 300" style="enable-background:new -105 107 300 300;" xml:space="preserve">
<style type="text/css">
	.st0{fill:#FFFFFF;}
</style>
<g id="Close">
	<path class="st0" d="M45,111.5c-80.4,0-145.5,65.1-145.5,145.5S-35.4,402.5,45,402.5S190.5,337.4,190.5,257S125.4,111.5,45,111.5z
		 M74,335.2l-14.7-26.4c-4.2-7.2-7.8-14.7-11.4-22.2H47c-3.6,7.8-7.5,15-11.1,22.2l-13.8,26.4H-28l49.8-74.7l-48.6-72h51l14.4,24.3
		c4.2,7.5,8.1,15,12,21.9h0.6c3.9-7.8,7.5-15.3,11.4-22.5l12.9-23.7H125l-48.3,69.9l48.9,76.8H74z"/>
</g>
</svg>
