<?xml version="1.0" encoding="utf-8"?>
<!-- Generator: Adobe Illustrator 19.1.0, SVG Export Plug-In . SVG Version: 6.00 Build 0)  -->
<svg version="1.1" xmlns="http://www.w3.org/2000/svg" xmlns:xlink="http://www.w3.org/1999/xlink" x="0px" y="0px"
	 viewBox="-105 107 300 300" style="enable-background:new -105 107 300 300;" xml:space="preserve">
<style type="text/css">
	.st1{display:inline;}
	.st2{font-family:'Seravek-Bold';}
	.st3{font-size:49.5px;}
</style>
<g id="CYCLE">
	<g class="st1">
		<path d="M-64.8,233.3c10.2-17.6,20.1-34.8,30.1-52.2c10.1,17.5,20,34.6,30.1,52.1c-6,0-11.6,0-17.5,0c1.2,9.8,4.4,18.6,9.3,26.8
			c5,8.2,11.4,15.1,19.4,20.8c-4.6,6.6-9.1,13.1-13.8,19.8c-22.9-16.8-35.8-39.1-39.2-67.3C-52.4,233.3-58.4,233.3-64.8,233.3z"/>
		<path d="M-10.4,185.1c-6.6-4.7-13.1-9.2-19.8-13.8c16.8-22.9,39.2-35.8,67.3-39.2c0-6,0-12,0-18.4c17.5,10.1,34.7,20,52.2,30.1
			c-17.4,10.1-34.6,20-52,30.1c0-5.9,0-11.5,0-17.5C17.2,159.3,1.5,168.9-10.4,185.1z"/>
		<path d="M138.3,215.6c6.1,0,12,0,18.4,0c-10.1,17.5-20,34.7-30.1,52.1c-10.1-17.5-20-34.6-30.1-52.1c6,0,11.6,0,17.5,0
			c-3-20-12.6-35.7-28.8-47.6c4.6-6.5,9.1-13,13.8-19.8C122,165.1,134.9,187.4,138.3,215.6z"/>
		<path d="M122.1,277.7c-16.9,22.9-39.2,35.8-67.3,39.1c0,6,0,11.9,0,18.4c-17.5-10.1-34.7-20-52.2-30.1
			c17.5-10.1,34.6-20,52.1-30.1c0,6,0,11.6,0,17.5c20-3,35.7-12.6,47.6-28.7C108.9,268.4,115.4,272.9,122.1,277.7z"/>
	</g>
	<text transform="matrix(1 0 0 1 -23.432 381.0065)" class="st1 st2 st3">CYCLE</text>
</g>
</svg>
