<?xml version="1.0" encoding="utf-8"?>
<!-- Generator: Adobe Illustrator 19.1.0, SVG Export Plug-In . SVG Version: 6.00 Build 0)  -->
<svg version="1.1" id="Layer_1" xmlns="http://www.w3.org/2000/svg" xmlns:xlink="http://www.w3.org/1999/xlink" x="0px" y="0px"
	 viewBox="-507.5 516.5 17 17" style="enable-background:new -507.5 516.5 17 17;" xml:space="preserve">
<path d="M-491,526.5v-2.9l-1.8-0.3c-0.1-0.4-0.3-0.8-0.6-1.4l1.1-1.5l-2.1-2.1l-1.5,1.1c-0.5-0.3-1-0.5-1.4-0.6l-0.2-1.8h-2.9
	l-0.3,1.8c-0.5,0.1-0.9,0.3-1.4,0.6l-1.5-1.1l-2.1,2.1l1,1.5c-0.3,0.5-0.4,0.9-0.6,1.4l-1.7,0.2v2.9l1.8,0.3
	c0.1,0.5,0.3,0.9,0.6,1.4l-1,1.5l2.1,2.1l1.5-1c0.4,0.2,0.9,0.4,1.4,0.6l0.3,1.8h3l0.3-1.8c0.5-0.1,0.9-0.3,1.4-0.6l1.5,1.1l2.1-2.1
	l-1.1-1.5c0.3-0.5,0.5-1,0.6-1.4L-491,526.5z M-499,528c-1.7,0-3-1.3-3-3s1.3-3,3-3c1.7,0,3,1.3,3,3S-497.3,528-499,528z"/>
</svg>
