<?xml version="1.0" encoding="utf-8"?>
<!-- Generator: Adobe Illustrator 19.1.0, SVG Export Plug-In . SVG Version: 6.00 Build 0)  -->
<svg version="1.1" xmlns="http://www.w3.org/2000/svg" xmlns:xlink="http://www.w3.org/1999/xlink" x="0px" y="0px"
	 viewBox="-105 107 300 300" style="enable-background:new -105 107 300 300;" xml:space="preserve">
<style type="text/css">
	.st0{display:none;}
	.st1{display:inline;fill:#DD3A3A;}
	.st2{display:inline;fill:#FFF200;}
	.st3{display:inline;}
	.st4{display:inline;fill:#F9B721;}
	.st5{display:inline;fill:#0C0800;}
	.st6{display:inline;fill:#4193C2;}
	.st7{display:inline;fill:none;}
	.st8{font-family:'Arial-BoldMT';}
	.st9{font-size:212px;}
	.st10{display:inline;fill:#FFFF0B;}
	.st11{display:inline;fill:none;stroke:#FFFF00;stroke-width:10;stroke-miterlimit:10;}
	.st12{display:inline;fill:#A5A5A5;}
	.st13{font-size:116.5274px;}
	.st14{font-size:82.2546px;}
	.st15{stroke:#000000;stroke-miterlimit:10;}
</style>
<g id="Layer_1" class="st0">
	<g id="power">
		<path class="st1" d="M76,124.3V177c33.8,11.9,58,44.2,58,82c0,48-39,87-87,87s-87-39-87-87c0-37.5,23.7-69.5,57-81.7v-53.2
			C-44.7,137.4-91,192.3-91,258c0,75.7,61.3,137,137,137s137-61.3,137-137C183,192.6,137.2,138,76,124.3z"/>
		<rect x="31" y="109" class="st1" width="30.3" height="125"/>
	</g>
	<g id="night-mode">
		<path class="st2" d="M36.6,111.1c-4.1,0-8.1,0.2-12.1,0.5c49.7,16.7,85.5,63.6,85.5,118.9c0,69.3-56.1,125.4-125.4,125.4
			c-29.3,0-56.3-10.1-77.7-26.9c25,45.9,73.6,77,129.6,77C118,406,184,340,184,258.6S118,111.1,36.6,111.1z"/>
	</g>
	<g id="preset">
		<path class="st3" d="M-33,372h-13c-6.6,0-12-5.4-12-12V168c0-6.6,5.4-12,12-12h13c6.6,0,12,5.4,12,12v192
			C-21,366.6-26.4,372-33,372z"/>
		<path class="st3" d="M54.5,372h-13c-6.6,0-12-5.4-12-12V198c0-6.6,5.4-12,12-12h13c6.6,0,12,5.4,12,12v162
			C66.5,366.6,61.1,372,54.5,372z"/>
		<path class="st3" d="M96.5,372h-13c-6.6,0-12-5.4-12-12V254.9c0-6.6,5.4-12,12-12h13c6.6,0,12,5.4,12,12V360
			C108.5,366.6,103.1,372,96.5,372z"/>
		<path class="st3" d="M138.5,372h-13c-6.6,0-12-5.4-12-12V232.4c0-6.6,5.4-12,12-12h13c6.6,0,12,5.4,12,12V360
			C150.5,366.6,145.1,372,138.5,372z"/>
		<path class="st3" d="M11,372H-2c-6.6,0-12-5.4-12-12V219.8c0-6.6,5.4-12,12-12h13c6.6,0,12,5.4,12,12V360
			C23,366.6,17.6,372,11,372z"/>
	</g>
	<g id="Lock">
		<path class="st4" d="M51.8,152.4c-37.9,0-68.7,30.8-68.7,68.7s30.8,68.7,68.7,68.7s68.7-30.8,68.7-68.7S89.7,152.4,51.8,152.4z
			 M51.8,262.3c-22.8,0-41.2-18.5-41.2-41.2s18.5-41.2,41.2-41.2S93,198.3,93,221.1S74.5,262.3,51.8,262.3z"/>
		<path class="st4" d="M136.1,375.6H-38.6c-6.6,0-12-5.4-12-12V221.8c0-6.6,5.4-12,12-12H136c6.6,0,12,5.4,12,12v141.8
			C148.1,370.2,142.6,375.6,136.1,375.6z"/>
		<ellipse class="st3" cx="54.1" cy="273.6" rx="24.9" ry="25.2"/>
		<rect x="44.9" y="282" class="st3" width="19.2" height="52.1"/>
	</g>
	<g id="Unlock">
		<path class="st4" d="M136.1,375.6H-38.6c-6.6,0-12-5.4-12-12V221.8c0-6.6,5.4-12,12-12H136c6.6,0,12,5.4,12,12v141.8
			C148.1,370.2,142.6,375.6,136.1,375.6z"/>
		<path class="st4" d="M25.9,226.6c-11.3-7.4-18.7-20.1-18.7-34.5c0-22.8,18.5-41.2,41.2-41.2c19.2,0,35.3,13.1,39.9,30.9h28
			c-5-33-33.5-58.4-67.9-58.4c-37.9,0-68.7,30.8-68.7,68.7c0,30.1,19.3,55.6,46.2,64.9V226.6z"/>
		<ellipse class="st3" cx="54.1" cy="273.6" rx="24.9" ry="25.2"/>
		<rect x="44.9" y="282" class="st3" width="19.2" height="52.1"/>
	</g>
	<g id="Menu">
		<rect x="-68" y="192" class="st5" width="40" height="40"/>
		<rect x="-68" y="292" class="st5" width="40" height="40"/>
		<rect x="-68" y="242" class="st5" width="40" height="40"/>
		<rect x="-17" y="192" class="st5" width="180" height="40"/>
		<rect x="-17" y="292" class="st5" width="180" height="40"/>
		<rect x="-17" y="242" class="st5" width="180" height="40"/>
	</g>
	<g id="Information">
		<path class="st6" d="M47,135c-69,0-125,56-125,125s56,125,125,125s125-56,125-125S116,135,47,135z M47,350c-49.7,0-90-40.3-90-90
			s40.3-90,90-90s90,40.3,90,90S96.7,350,47,350z"/>
		<rect x="17" y="187" class="st7" width="214.5" height="236"/>
		<text transform="matrix(1 0 0 1 17 338.7896)" class="st6 st8 st9">i</text>
	</g>
	<g id="Layer_8">
		
			<image style="display:inline;overflow:visible;enable-background:new    ;" width="66" height="64" xlink:href="../../../../Desktop/Screen Shot 2015-12-04 at 2.59.32 PM.png"  transform="matrix(7.2424 0 0 7.7502 -201 12.8139)">
		</image>
	</g>
	<g id="Brightness">
		<circle class="st10" cx="47.4" cy="259.6" r="24.4"/>
		<line class="st11" x1="47.4" y1="192.9" x2="47.4" y2="225.7"/>
		<line class="st11" x1="74.8" y1="235.2" x2="96.1" y2="213.5"/>
		<line class="st11" x1="81.6" y1="262" x2="110.6" y2="262"/>
		<line class="st11" x1="71.7" y1="286.6" x2="91.5" y2="307.2"/>
		<line class="st11" x1="47.4" y1="293.4" x2="47.4" y2="325.4"/>
		<line class="st11" x1="23" y1="286.6" x2="-0.6" y2="307.2"/>
		<line class="st11" x1="11.2" y1="262" x2="-18.9" y2="262"/>
		<line class="st11" x1="20.4" y1="232.4" x2="-0.6" y2="210"/>
	</g>
	<g id="Decrement">
		<path class="st12" d="M104.5,118.3v51.8c0,0-71.3,19.2-67,87.6c3.8,60.9,67,85.3,67,85.3v50.6c0,0-26.5,17.5-45.7,0
			S-53.9,291.9-60,273.6s-5.7-17.1,0-34.3S46.2,130.5,65.7,117.1C90,105.7,104.5,118.3,104.5,118.3z"/>
		<rect x="-31.8" y="203.2" class="st7" width="79.2" height="107.4"/>
		<text transform="matrix(1 0 0 1 -31.8354 286.5962)" class="st3 st8 st13">-</text>
	</g>
	<g id="Increment">
		<path class="st12" d="M-7.3,396.2v-51.8c0,0,71.3-19.2,67-87.6c-3.8-60.9-67-85.3-67-85.3v-50.6c0,0,26.5-17.5,45.7,0
			s112.7,101.7,118.8,120s5.7,17.1,0,34.3C151.5,292.4,50.9,384,31.5,397.4C7.1,408.8-7.3,396.2-7.3,396.2z"/>
		<rect x="88.1" y="226.8" class="st7" width="79.2" height="70.5"/>
		<text transform="matrix(1 0 0 1 88.1187 285.668)" class="st3 st8 st14">+</text>
	</g>
</g>
<g id="Close">
	<path class="st15" d="M44.5,112C-35.9,112-101,177.1-101,257.5S-35.9,403,44.5,403S190,337.9,190,257.5S124.9,112,44.5,112z
		 M73.5,335.7l-14.7-26.4c-4.2-7.2-7.8-14.7-11.4-22.2h-0.9c-3.6,7.8-7.5,15-11.1,22.2l-13.8,26.4h-50.1L21.3,261l-48.6-72h51
		l14.4,24.3c4.2,7.5,8.1,15,12,21.9h0.6c3.9-7.8,7.5-15.3,11.4-22.5L75,189h49.5l-48.3,69.9l48.9,76.8H73.5z"/>
</g>
<g id="Back">
	<path d="M188.9,378.1C155,325.5,105.3,307,45.8,307c0,2.6,0,5.2,0,7.8c0,11.9,0,23.8,0,35.7c0,8.1-3.6,14.1-11,17.3
		c-7.5,3.2-14.3,1.5-20-4.2c-36.7-36.1-73.3-72.3-110-108.5c-0.7-0.7-1.3-1.4-2.1-2.3c1.1-1.1,2-2.2,2.9-3.1
		c36.1-35.6,72.1-71.1,108.1-106.8c6.1-6,12.8-8.3,20.9-5.2c7.3,2.9,11,9.3,11,18.5c0,14.4,0,28.8,0,43.5
		c54.4,7.9,96,34.9,123.3,82.9C185.8,311.8,190.8,343.6,188.9,378.1z"/>
</g>
</svg>
