<?xml version="1.0" encoding="utf-8"?>
<!-- Generator: Adobe Illustrator 19.1.0, SVG Export Plug-In . SVG Version: 6.00 Build 0)  -->
<svg version="1.1" xmlns="http://www.w3.org/2000/svg" xmlns:xlink="http://www.w3.org/1999/xlink" x="0px" y="0px"
	 viewBox="0 0 300 300" style="enable-background:new 0 0 300 300;" xml:space="preserve">
<style type="text/css">
	.st4{display:inline;fill:#F9B721;}
</style>
<g id="Lock" class="st0">
	<path class="st4" d="M156.8,45.4c-37.9,0-68.7,30.8-68.7,68.7s30.8,68.7,68.7,68.7s68.7-30.8,68.7-68.7S194.7,45.4,156.8,45.4z
		 M156.8,155.3c-22.8,0-41.2-18.5-41.2-41.2s18.5-41.2,41.2-41.2S198,91.3,198,114.1S179.5,155.3,156.8,155.3z"/>
	<path class="st4" d="M241.1,268.6H66.4c-6.6,0-12-5.4-12-12V114.8c0-6.6,5.4-12,12-12h174.6c6.6,0,12,5.4,12,12v141.8
		C253.1,263.2,247.6,268.6,241.1,268.6z"/>
	<ellipse class="st3" cx="159.1" cy="166.6" rx="24.9" ry="25.2"/>
	<rect x="149.9" y="175" class="st3" width="19.2" height="52.1"/>
</g>
</svg>
