<?xml version="1.0" encoding="utf-8"?>
<!-- Generator: Adobe Illustrator 19.1.0, SVG Export Plug-In . SVG Version: 6.00 Build 0)  -->
<svg version="1.1" id="Layer_1" xmlns="http://www.w3.org/2000/svg" xmlns:xlink="http://www.w3.org/1999/xlink" x="0px" y="0px"
	 viewBox="-196.5 107 470 300" style="enable-background:new -196.5 107 470 300;" xml:space="preserve">
<style type="text/css">
	.st0{stroke:#000000;stroke-miterlimit:10;}
	.st1{fill:url(#SVGID_1_);stroke:#000000;stroke-miterlimit:10;}
</style>
<path class="st0" d="M261.5,407h-446c-6.6,0-12-5.4-12-12V119c0-6.6,5.4-12,12-12h446c6.6,0,12,5.4,12,12v276
	C273.5,401.6,268.1,407,261.5,407z"/>
<linearGradient id="SVGID_1_" gradientUnits="userSpaceOnUse" x1="-65.399" y1="74.8095" x2="144.399" y2="438.1905">
	<stop  offset="0" style="stop-color:#000D94"/>
	<stop  offset="0.5" style="stop-color:#0D007F"/>
	<stop  offset="0.51" style="stop-color:#00036A"/>
	<stop  offset="0.9962" style="stop-color:#01002A"/>
</linearGradient>
<path class="st1" d="M228.2,386.5h-377.4c-11.8,0-21.3-9.5-21.3-21.3V147.8c0-11.8,9.5-21.3,21.3-21.3h377.4
	c11.8,0,21.3,9.5,21.3,21.3v217.4C249.5,377,240,386.5,228.2,386.5z"/>
</svg>
