<svg id="Layer_4" data-name="Layer 4" xmlns="http://www.w3.org/2000/svg" viewBox="0 0 84.08 71.48"><defs><style>.cls-1,.cls-2{fill:#00596a;}.cls-2{font-size:43.1px;font-family:Helvetica Neue;font-weight:700;}</style></defs><title>monitor_sharp_icon</title><path class="cls-1" d="M88.51,14.9H8.68c-1.17,0-2.13,1.29-2.13,2.87V83.51c0,1.59,1,2.87,2.13,2.87H88.51c1.17,0,2.13-1.29,2.13-2.87V17.77C90.64,16.19,89.69,14.9,88.51,14.9ZM71.09,82.73A1.81,1.81,0,1,1,73,80.92,1.84,1.84,0,0,1,71.09,82.73Zm6.42,0a1.81,1.81,0,1,1,1.86-1.81A1.84,1.84,0,0,1,77.51,82.73Zm6.42,0a1.81,1.81,0,1,1,1.86-1.81A1.84,1.84,0,0,1,83.92,82.73Zm2.7-7.35a0.86,0.86,0,0,1-.71,1H11.28a0.86,0.86,0,0,1-.71-1V20.49a0.86,0.86,0,0,1,.71-1H85.91a0.86,0.86,0,0,1,.71,1V75.37Z" transform="translate(-6.56 -14.9)"/><text class="cls-2" transform="translate(27.06 47.57) scale(1.2 1)">#</text></svg>