<?xml version="1.0" encoding="utf-8"?>
<!-- Generator: Adobe Illustrator 19.1.0, SVG Export Plug-In . SVG Version: 6.00 Build 0)  -->
<svg version="1.1" id="Layer_1" xmlns="http://www.w3.org/2000/svg" xmlns:xlink="http://www.w3.org/1999/xlink" x="0px" y="0px"
	 viewBox="0 0 160 140" xml:space="preserve">
<style type="text/css">
	.st0{fill:#CBCCCE;}
	.st1{fill:#848689;}
</style>
<g>
	<path d="M161,131.4c0,3-1.8,5.5-4.1,5.5H4.1c-2.2,0-4.1-2.5-4.1-5.5V5.5C0,2.5,1.8,0,4.1,0h152.9c2.2,0,4.1,2.5,4.1,5.5V131.4z"/>
	<path class="st0" d="M153.3,115.8c0,1-0.6,1.8-1.4,1.8H9c-0.7,0-1.4-0.8-1.4-1.8V10.7c0-1,0.6-1.8,1.4-1.8H152
		c0.7,0,1.4,0.8,1.4,1.8V115.8z"/>
	<ellipse class="st1" cx="123.6" cy="126.4" rx="3.6" ry="3.5"/>
	<ellipse class="st1" cx="135.9" cy="126.4" rx="3.6" ry="3.5"/>
	<ellipse class="st1" cx="148.2" cy="126.4" rx="3.6" ry="3.5"/>
</g>
</svg>
