<svg id="Layer_3" data-name="Layer 3" xmlns="http://www.w3.org/2000/svg" viewBox="0 0 73.72 73.72"><defs><style>.cls-1{fill:none;stroke:#6d2b90;stroke-miterlimit:10;stroke-width:4.02px;}</style></defs><title>network_icon</title><circle class="cls-1" cx="36.86" cy="36.86" r="34.85"/><ellipse class="cls-1" cx="36.86" cy="36.86" rx="19.79" ry="34.85"/><line class="cls-1" x1="2.31" y1="37.15" x2="70.82" y2="37.15"/><line class="cls-1" x1="36.56" y1="71.41" x2="36.56" y2="2.9"/><path class="cls-1" d="M84.37,50.62a34.78,34.78,0,0,0-13.46-27.5,34.69,34.69,0,0,1-21.39,7.35,34.69,34.69,0,0,1-21.39-7.35,34.84,34.84,0,0,0-.8,54.38,34.85,34.85,0,0,1,44.37,0A34.78,34.78,0,0,0,84.37,50.62Z" transform="translate(-12.67 -13.77)"/><path class="cls-1" d="M27.34,77.5a34.85,34.85,0,0,0,44.37,0A34.85,34.85,0,0,0,27.34,77.5Z" transform="translate(-12.67 -13.77)"/><path class="cls-1" d="M70.91,23.12a34.81,34.81,0,0,0-42.78,0,34.69,34.69,0,0,0,21.39,7.35A34.69,34.69,0,0,0,70.91,23.12Z" transform="translate(-12.67 -13.77)"/></svg>