<?xml version="1.0" encoding="utf-8"?>
<!-- Generator: Adobe Illustrator 19.1.0, SVG Export Plug-In . SVG Version: 6.00 Build 0)  -->
<svg version="1.1" xmlns="http://www.w3.org/2000/svg" xmlns:xlink="http://www.w3.org/1999/xlink" x="0px" y="0px"
	 viewBox="-18 20.8 474.2 473.2" style="enable-background:new -18 20.8 474.2 473.2;" xml:space="preserve">
<style type="text/css">
	.st0{fill:url(#SVGID_1_);}
	.st1{display:none;}
	.st2{display:inline;}
	.st3{fill:#BE1E2D;}
	.st4{fill:none;}
	.st5{font-family:'Tahoma-Bold';}
	.st6{font-size:108px;}
	.st7{display:inline;fill:#94B5DB;}
	.st8{font-family:'Arial-BoldMT';}
	.st9{font-size:82px;}
	.st10{display:inline;fill:#B4C0CC;}
	.st11{display:inline;fill:#AF7CD8;}
	.st12{fill:#6B6BE8;}
	.st13{display:inline;fill:#6D6D6D;}
	.st14{display:inline;fill:none;}
	.st15{font-size:300px;}
	.st16{fill:#FFF200;}
</style>
<g id="Layer_2">
	<g id="Main">
		
			<radialGradient id="SVGID_1_" cx="220.1" cy="259.7" r="236.1" gradientTransform="matrix(1 0 0 -1 0 517.6)" gradientUnits="userSpaceOnUse">
			<stop  offset="0.8128" style="stop-color:#E1E0E0"/>
			<stop  offset="1" style="stop-color:#606060"/>
		</radialGradient>
		<circle class="st0" cx="220.1" cy="257.9" r="236.1"/>
	</g>
</g>
<g id="POWER" class="st1">
	<g id="Power" class="st2">
		<circle class="st3" cx="220.6" cy="259.9" r="210.3"/>
		<rect x="12.3" y="217.2" class="st4" width="474.2" height="227"/>
		<text transform="matrix(1 0 0 1 12.2605 299.3048)" class="st5 st6">POWER</text>
	</g>
</g>
<g id="PRESETS" class="st1">
	<circle class="st7" cx="220.6" cy="259.9" r="210.3"/>
	<text transform="matrix(1 0 0 1 33.3 282.8)" class="st2 st8 st9">PRESETS</text>
</g>
<g id="CYCLE" class="st1">
	<circle class="st10" cx="220.6" cy="259.9" r="210.3"/>
	<text transform="matrix(1 0 0 1 87.3444 283.8)" class="st2 st8 st9">CYCLE</text>
</g>
<g id="PIP" class="st1">
	<circle class="st11" cx="220.6" cy="259.9" r="210.3"/>
	<text transform="matrix(1 0 0 1 160.2155 283.8)" class="st2 st8 st9">PIP</text>
</g>
<g id="OSD">
	<circle class="st12" cx="220.6" cy="259.9" r="210.3"/>
	<text transform="matrix(1 0 0 1 137.4533 283.8)" class="st8 st9">OSD</text>
</g>
<g id="Increment" class="st1">
	<polygon class="st13" points="314.8,22.9 369.6,312.8 226.1,491.9 82.6,312.8 137.4,22.9 	"/>
	<rect x="101.2" y="37" class="st14" width="177" height="247"/>
	<text transform="matrix(-1 0 0 -1 278.1992 69.2033)" class="st2 st8 st15">-</text>
</g>
<g id="Night_Mode" class="st1">
	<g id="Power_copy" class="st2">
		<circle cx="220.6" cy="259.9" r="210.3"/>
		<rect x="36" y="155.4" class="st4" width="474.2" height="227"/>
		<text transform="matrix(1 0 0 1 35.9596 237.5243)" class="st16 st5 st6">NIGHT </text>
		<text transform="matrix(1 0 0 1 35.9596 367.1243)" class="st16 st5 st6">MODE</text>
	</g>
</g>
</svg>
