<?xml version="1.0" encoding="utf-8"?>
<!-- Generator: Adobe Illustrator 19.1.0, SVG Export Plug-In . SVG Version: 6.00 Build 0)  -->
<svg version="1.1" xmlns="http://www.w3.org/2000/svg" xmlns:xlink="http://www.w3.org/1999/xlink" x="0px" y="0px"
	 viewBox="-105 107 300 300" style="enable-background:new -105 107 300 300;" xml:space="preserve">
<style type="text/css">
	.st2{font-family:'Seravek-Bold';}
	.st3{font-size:49.5px;}
	.st4{fill:#254b58;}
</style>
<g id="OSD">
	<g>
		<path class="st4" d="M181.5,289.3c-1.9,3.2-4.7,4.1-8.4,4.1c-83.4-0.1-166.8,0-250.2,0c-1,0-1.9-0.1-2.9,0c-3.6,0.3-6.3-0.9-8.1-4
			c0-51.1,0-102.1,0-153.2c1.7-3.3,4.4-4.2,8-4.2c84.5,0.1,169,0.1,253.6,0c3.6,0,6.3,1,8,4.2C181.5,187.2,181.5,238.3,181.5,289.3z
			 M46.8,148.8c-36.7,0-73.3,0-110,0c-5.5,0-7.5,1.9-7.5,7.4c0,37.7,0,75.4,0,113.2c0,5.2,2.1,7.3,7.4,7.3c73.3,0,146.7,0,220,0
			c5.6,0,7.6-2,7.6-7.6c0-37.7,0-75.4,0-113.2c0-5.1-2.1-7.1-7.2-7.1C120.3,148.8,83.5,148.8,46.8,148.8z"/>
		<path class="st4" d="M-6.5,307.9c35.6,0,70.8,0,106.5,0c-0.9,1.5-1.6,2.8-2.5,4.1c-5.7,7.8-13.5,12.7-22.4,15.9c-21,7.4-41.8,7-62.2-2.3
			c-6.9-3.1-12.8-7.6-17.2-13.9C-5,310.6-5.6,309.4-6.5,307.9z"/>
	</g>
	<text transform="matrix(1 0 0 1 -1.432 381.0065)" class="st2 st3 st4">OSD</text>
</g>
</svg>
