<?xml version="1.0" encoding="utf-8"?>
<!-- Generator: Adobe Illustrator 19.1.0, SVG Export Plug-In . SVG Version: 6.00 Build 0)  -->
<svg version="1.1" xmlns="http://www.w3.org/2000/svg" xmlns:xlink="http://www.w3.org/1999/xlink" x="0px" y="0px"
	 viewBox="-105 107 300 300" style="enable-background:new -105 107 300 300;" xml:space="preserve">
<style type="text/css">
	.st1{display:inline;}
	.st2{font-family:'Seravek-Bold';}
	.st3{font-size:49.5px;}
	.st4{fill:#666666;}
</style>
<g id="PIP" class="st0">
	<g class="st1">
		<path class="st4" d="M-82.8,323.9c0-57.8,0-114.5,0-172.4c39.2,0,78,0,118.3,0c0.3,4.8,0.5,9.8,0.9,16.6c-33.7,0-66.7,0-100.6,0
			c0,40.5,0,79.3,0,115.8c14.9-15.9,31.3-33.3,47.6-50.8c1.4,0.9,2.8,1.8,4.2,2.7c-11.3,0-22.5,0-35.3,0c-0.3-6.3-0.6-11.3-0.9-17.5
			c24.1,0,47.5,0,72.1,0c0,22.9,0,46.2,0,71.2c-4.5,0.2-9.6,0.5-16.4,0.9c0-12.4,0-24.1,0-37.7c-18.3,19.9-34.9,37.9-49.4,53.6
			c57.8,0,120.6,0,184.7,0c0-24.7,0-48.6,0-73.5c6.3,0,11.3,0,17.3,0c0,30,0,60.1,0,91.2C79.3,323.9-0.9,323.9-82.8,323.9z"/>
		<path class="st4" d="M177.4,119.7c0,32.5,0,64.5,0,97.3c-42.3,0-83.9,0-126.6,0c0-32.2,0-64.2,0-97.3C92.7,119.7,134.6,119.7,177.4,119.7z
			 M159.1,199.3c0-21.4,0-41.3,0-61.3c-30.7,0-60.6,0-90,0c0,21.1,0,41,0,61.3C99.4,199.3,128.5,199.3,159.1,199.3z"/>
	</g>
	<text transform="matrix(1 0 0 1 20.568 384.0065)" class="st1 st2 st3 st4">PIP</text>
</g>
</svg>
