<?xml version="1.0" encoding="utf-8"?>
<!-- Generator: Adobe Illustrator 19.1.0, SVG Export Plug-In . SVG Version: 6.00 Build 0)  -->
<svg version="1.1" xmlns="http://www.w3.org/2000/svg" xmlns:xlink="http://www.w3.org/1999/xlink" x="0px" y="0px"
	 viewBox="-105 107 300 300" style="enable-background:new -105 107 300 300;" xml:space="preserve">
<g id="Save">
	<path class="st1" d="M23.9,165.8c17.9-8,22.7-1.1,22.2,14.8c-0.7,20.7-0.2,41.5-0.2,62.9c44.3-10.8,66.4-4.6,80,21.3
		c10.9,20.7,5.9,48-11.9,63.8c-18.1,16.1-44.4,17.7-64.7,3.9C26.4,317,21.8,293.7,35.1,255c-27.5,0-54.3,0-80.7,0
		c-3.9-20.5-3.9-20.5,44.3-25.2c-24.5-24.1-49.2-48.5-76.7-75.5c8.5-8.9,13-13.7,20.9-21.9c26.7,29.6,54.2,59.6,77.7,85.7
		L23.9,165.8z"/>
	<path class="st1" d="M63.8,197.9c27.5,0,55.5-2.9,82.4,1c18.7,2.7,27.6,20.4,27.5,40.4c-0.1,33,0.3,66-0.2,99
		c-0.4,27.3-15.6,44.1-43,45.1c-34.6,1.3-69.3,1.3-103.9-0.1c-26.1-1.1-40.8-17.9-41.4-43.9c-0.4-17.7-0.4-35.4,0.2-53.1
		c0.2-4.9,3-9.6,4.6-14.4c3.2,0.4,6.4,0.8,9.7,1.2c0,17.6,0,35.3,0,52.9c0.1,35.4,6.5,41.8,42.6,41.9c28.2,0.1,56.4-0.1,84.6-0.1
		c22,0,32.4-11.7,32.5-33c0.2-30.6,0.3-61.2-0.1-91.8c-0.3-21.3-11-32.7-33.1-32.4c-16.1,0.2-32.2,0.5-48.3-0.3
		c-5.3-0.3-10.5-4-15.7-6.1C62.7,202.1,63.3,200,63.8,197.9z"/>
</g>
</svg>
