<?xml version="1.0" encoding="utf-8"?>
<!-- Generator: Adobe Illustrator 19.1.0, SVG Export Plug-In . SVG Version: 6.00 Build 0)  -->
<svg version="1.1" xmlns="http://www.w3.org/2000/svg" xmlns:xlink="http://www.w3.org/1999/xlink" x="0px" y="0px"
	 viewBox="-105 107 300 300" style="enable-background:new -105 107 300 300;" xml:space="preserve">
<g id="Load">
	<path d="M74.9,156.6c5.2-4.2,10.2-11.7,15.6-12c24.5-1.3,49-0.6,77.1-0.6c0,28.8,0.4,56.2-0.4,83.6c-0.1,3.4-6.3,6.6-9.7,9.9
		c-3.1-3.6-8.6-7-8.9-10.8c-1.1-13.8-0.1-52.7-0.1-52.7c-22.1,23.5-51.9,53.4-72.7,78c-3.8,4.5-0.5,15.6,0.6,23.5
		c3.4,23.2-1.7,43-22.6,55.8C33.4,344,12.4,343-6.3,328.5c-18.2-14-23.3-33.6-17.4-55.5c6.9-25.9,35.1-43.1,61.3-34.8
		c14.2,4.5,21.9,0.3,30.8-9c19.6-20.5,39.8-40.4,63.1-63.9c-20.2-1-36.3-1.7-52.4-2.5C77.7,160.7,76.3,158.7,74.9,156.6z"/>
	<path d="M66.6,206.5c-8.2,2.2-16.3,5.9-24.5,6.2c-22.2,0.9-44.5,0.3-66.7,0.3c-21.7,0-31.9,11-31.8,32.5c0.1,30.2,0.3,60.4,0,90.6
		c-0.2,22,11.1,32,32.2,32.2c31,0.2,62,0.6,92.9-0.1c23.2-0.5,32-10.3,32.5-34.5c0.4-23-0.4-46.1,0.4-69.1
		c0.3-8.1,3.9-16.1,6.1-24.1c2.4,0.4,4.8,0.9,7.3,1.3c0,36,1.8,72.1-0.7,108c-1.5,21.6-18.9,33.2-39.9,33.9
		c-34.9,1.2-69.9,1.5-104.8-0.1c-25.1-1.1-39.4-17.1-39.9-41.7c-0.6-34.1-0.6-68.3,0.1-102.5c0.5-24.2,14.2-39.5,37.8-40.3
		c32.5-1.2,65-0.3,97.5-0.3C65.4,201.3,66,203.9,66.6,206.5z"/>
</g>
</svg>
