<?xml version="1.0" encoding="utf-8"?>
<!-- Generator: Adobe Illustrator 19.1.0, SVG Export Plug-In . SVG Version: 6.00 Build 0)  -->
<svg version="1.1" xmlns="http://www.w3.org/2000/svg" xmlns:xlink="http://www.w3.org/1999/xlink" x="0px" y="0px"
	 viewBox="0 0 300 300" style="enable-background:new 0 0 300 300;" xml:space="preserve">
<style type="text/css">
	.st2{fill:#FFF200;}
</style>
<g id="Layer_5">
	<path d="M72,265H59c-6.6,0-12-5.4-12-12V61c0-6.6,5.4-12,12-12h13c6.6,0,12,5.4,12,12v192C84,259.6,78.6,265,72,265z"/>
	<path d="M159.5,265h-13c-6.6,0-12-5.4-12-12V91c0-6.6,5.4-12,12-12h13c6.6,0,12,5.4,12,12v162C171.5,259.6,166.1,265,159.5,265z"/>
	<path d="M201.5,265h-13c-6.6,0-12-5.4-12-12V147.9c0-6.6,5.4-12,12-12h13c6.6,0,12,5.4,12,12V253C213.5,259.6,208.1,265,201.5,265z
		"/>
	<path d="M243.5,265h-13c-6.6,0-12-5.4-12-12V125.4c0-6.6,5.4-12,12-12h13c6.6,0,12,5.4,12,12V253C255.5,259.6,250.1,265,243.5,265z
		"/>
	<path d="M116,265h-13c-6.6,0-12-5.4-12-12V112.8c0-6.6,5.4-12,12-12h13c6.6,0,12,5.4,12,12V253C128,259.6,122.6,265,116,265z"/>
</g>
</svg>
