<svg id="Layer_1" data-name="Layer 1" xmlns="http://www.w3.org/2000/svg" viewBox="0 0 84.05 81.36"><defs><style>.cls-1,.cls-2{fill:none;stroke:#3c2f90;stroke-miterlimit:10;}.cls-1{stroke-width:4px;}.cls-2{stroke-width:6px;}.cls-3{fill:#3c2f90;}</style></defs><title>theme_icon</title><ellipse class="cls-1" cx="65.48" cy="36.85" rx="6.27" ry="23.52" transform="translate(-15.44 39.59) rotate(-39.59)"/><path class="cls-2" d="M40.81,88.45C38,90.79,29,84.57,20.71,74.56S8,54.54,10.83,52.2l32.6-27S44.93,34.13,54.78,46,73.53,61.57,73.53,61.57Z" transform="translate(-6.98 -10.58)"/><path class="cls-3" d="M37.11,53.22c0-.07-4.49-6.71-8.62-14.5C22.79,28,20.37,20.21,21.3,15.62A6.26,6.26,0,0,1,24,11.43c3.87-2.55,9.08.45,19.94,11.45l-2.63,2.6c-10.39-10.53-14-11.77-15.27-11a2.58,2.58,0,0,0-1.07,1.83C23.39,24,35.42,44.06,40.18,51.16c0,0,.44,1.63-0.45,2.3S37.11,53.22,37.11,53.22Z" transform="translate(-6.98 -10.58)"/><path class="cls-3" d="M60.64,40.84s5,5.12,5.77,6.79,6.52,6.14,9.87,8,4.84-2.23,5-3.72S77,43.35,77,43.35L61.39,40.19l9.25,8.14s5.77,4.84,9.24,8.34,4.84,16.17,2.66,20.83-0.08,9,2.85,9.39,4.68-1.3,5.4-6.18S91.64,61.4,76.84,50.24" transform="translate(-6.98 -10.58)"/></svg>