<?xml version="1.0" encoding="utf-8"?>
<!-- Generator: Adobe Illustrator 19.1.0, SVG Export Plug-In . SVG Version: 6.00 Build 0)  -->
<svg version="1.1" xmlns="http://www.w3.org/2000/svg" xmlns:xlink="http://www.w3.org/1999/xlink" x="0px" y="0px"
	 viewBox="0 0 300 300" style="enable-background:new 0 0 300 300;" xml:space="preserve">
<style type="text/css">
	.st5{fill:#F9B721;}
</style>
<g id="Unlock">
	<path class="st5" d="M241.1,268.6H66.4c-6.6,0-12-5.4-12-12V114.8c0-6.6,5.4-12,12-12h174.6c6.6,0,12,5.4,12,12v141.8
		C253.1,263.2,247.6,268.6,241.1,268.6z"/>
	<path class="st5" d="M130.9,119.6c-11.3-7.4-18.7-20.1-18.7-34.5c0-22.8,18.5-41.2,41.2-41.2c19.2,0,35.3,13.1,39.9,30.9h28
		c-5-33-33.5-58.4-67.9-58.4c-37.9,0-68.7,30.8-68.7,68.7c0,30.1,19.3,55.6,46.2,64.9V119.6z"/>
	<ellipse cx="159.1" cy="166.6" rx="24.9" ry="25.2"/>
	<rect x="149.9" y="175" width="19.2" height="52.1"/>
</g>
</svg>
