<svg id="Layer_2" data-name="Layer 2" xmlns="http://www.w3.org/2000/svg" viewBox="0 0 77.35 76.96"><defs><style>.cls-1,.cls-2{fill:#0069af;}.cls-2{stroke:#231f20;stroke-miterlimit:10;stroke-width:6.05px;}</style></defs><title>update_icon</title><path class="cls-1" d="M16.74,52.52H10.68a39.35,39.35,0,0,1,64.86-30l-3.93,4.61A33.3,33.3,0,0,0,16.74,52.52Z" transform="translate(-10.68 -12.32)"/><path class="cls-2" d="M18.42,71.83" transform="translate(-10.68 -12.32)"/><polygon class="cls-1" points="48.81 14.99 71.3 25.95 66.11 0 48.81 14.99"/><path class="cls-1" d="M48.68,89.28a39.37,39.37,0,0,1-25.51-9.39l3.93-4.61A33.3,33.3,0,0,0,82,49.92H88A39.4,39.4,0,0,1,48.68,89.28Z" transform="translate(-10.68 -12.32)"/><path class="cls-2" d="M79,30.18" transform="translate(-10.68 -12.32)"/><polygon class="cls-1" points="27.04 61.83 4.55 50.87 9.74 76.82 27.04 61.83"/></svg>